<?xml version="1.0" encoding="utf-8"?>
<!-- Generator: Adobe Illustrator 24.3.0, SVG Export Plug-In . SVG Version: 6.00 Build 0)  -->
<svg version="1.1" id="Layer_1" xmlns="http://www.w3.org/2000/svg" xmlns:xlink="http://www.w3.org/1999/xlink" x="0px" y="0px"
	 viewBox="0 0 252 144" style="enable-background:new 0 0 252 144;" xml:space="preserve">
<style type="text/css">
	.st0{fill:#A0B4C1;}
	.st1{fill:#7794A6;}
</style>
<rect class="st0" width="116.56" height="144"/>
<rect x="116.56" class="st1" width="135.77" height="144"/>
<path class="st1" d="M77.92,131.84C70.93,141.34,61.1,144,51.95,144c-20.32,0-34.8-15.65-34.8-45.3c0-31.64,16.15-43.3,34.3-43.3
	c9.33,0,18.15,2.66,24.81,10.16V0h40.3v144H78.85L77.92,131.84z M75.59,86.71c-1-4.83-4.16-7.66-8.66-7.66
	c-8.33,0-9.49,7.33-9.49,20.65c0,11.32,1,20.65,9.66,20.65c4.5,0,6.33-2,7.49-4.5c1.17-2.5,1.67-7.49,1.67-16.15
	C76.26,92.38,76.26,90.21,75.59,86.71z"/>
<path class="st0" d="M116.56,0h40.3v65.57c6.66-7.49,15.49-10.16,24.81-10.16c18.15,0,34.3,11.66,34.3,43.3
	c0,29.64-14.49,45.3-34.8,45.3c-9.16,0-18.98-2.66-25.98-12.16L154.31,144h-37.75V0z M158.52,115.86c1.17,2.5,3,4.5,7.49,4.5
	c8.66,0,9.66-9.33,9.66-20.65c0-13.32-1.17-20.65-9.49-20.65c-4.5,0-7.66,2.83-8.66,7.66c-0.67,3.5-0.67,5.66-0.67,12.99
	C156.86,108.36,157.36,113.36,158.52,115.86z"/>
</svg>
